<?xml version="1.0" encoding="UTF-8" standalone="no"?>
<!-- Created with Inkscape (http://www.inkscape.org/) -->

<svg
   width="1280"
   height="720"
   viewBox="0 0 1280 720"
   version="1.1"
   id="svg1"
   inkscape:version="1.4 (e7c3feb, 2024-10-09)"
   sodipodi:docname="drawing.svg"
   xmlns:inkscape="http://www.inkscape.org/namespaces/inkscape"
   xmlns:sodipodi="http://sodipodi.sourceforge.net/DTD/sodipodi-0.dtd"
   xmlns="http://www.w3.org/2000/svg"
   xmlns:svg="http://www.w3.org/2000/svg">
  <sodipodi:namedview
     id="namedview1"
     pagecolor="#ffffff"
     bordercolor="#000000"
     borderopacity="0.25"
     inkscape:showpageshadow="false"
     inkscape:pageopacity="0.0"
     inkscape:pagecheckerboard="true"
     inkscape:deskcolor="#d1d1d1"
     inkscape:document-units="px"
     borderlayer="false"
     inkscape:zoom="0.70710678"
     inkscape:cx="554.37172"
     inkscape:cy="298.39906"
     inkscape:window-width="1920"
     inkscape:window-height="1011"
     inkscape:window-x="0"
     inkscape:window-y="0"
     inkscape:window-maximized="1"
     inkscape:current-layer="layer2"
     showborder="false" />
  <defs
     id="defs1">
    <inkscape:path-effect
       effect="fillet_chamfer"
       id="path-effect13"
       is_visible="true"
       lpeversion="1"
       nodesatellites_param="F,0,0,1,0,0,0,1 @ F,0,0,1,0,0,0,1 @ F,0,0,1,0,0,0,1 @ F,0,0,1,0,0,0,1"
       radius="0"
       unit="px"
       method="auto"
       mode="F"
       chamfer_steps="1"
       flexible="false"
       use_knot_distance="true"
       apply_no_radius="true"
       apply_with_radius="true"
       only_selected="false"
       hide_knots="false" />
    <inkscape:path-effect
       effect="fillet_chamfer"
       id="path-effect7"
       is_visible="true"
       lpeversion="1"
       nodesatellites_param="F,0,0,1,0,0,0,1 @ F,0,0,1,0,53.173416,0,1 @ F,0,1,1,0,73.346549,0,1 @ F,0,1,1,0,73.346549,0,1 @ F,0,0,1,0,73.346549,0,1 @ F,0,1,1,0,73.346549,0,1"
       radius="0"
       unit="px"
       method="auto"
       mode="F"
       chamfer_steps="1"
       flexible="false"
       use_knot_distance="true"
       apply_no_radius="true"
       apply_with_radius="true"
       only_selected="false"
       hide_knots="false" />
  </defs>
  <g
     inkscape:groupmode="layer"
     id="layer3"
     inkscape:label="Rectangles">
    <rect
       style="fill:#ffffff;fill-opacity:1;stroke:none;stroke-width:1;stroke-linejoin:bevel;stroke-dasharray:none;stroke-opacity:1"
       id="rect124"
       width="646.29559"
       height="654.78088"
       x="316.8522"
       y="32.609558"
       rx="18.564379"
       inkscape:label="Background"
       inkscape:export-filename="numstore/logo.png"
       inkscape:export-xdpi="96"
       inkscape:export-ydpi="96" />
    <rect
       style="fill:#104280;fill-opacity:1;stroke:none;stroke-width:10;stroke-linejoin:bevel;stroke-dasharray:none;stroke-opacity:1"
       id="rect13"
       width="562.90912"
       height="182.11765"
       x="358.54547"
       y="66"
       sodipodi:type="rect"
       ry="26.718529"
       rx="18.564379"
       inkscape:label="Top" />
    <rect
       style="fill:#104280;fill-opacity:1;stroke:none;stroke-width:15.5021;stroke-linejoin:bevel;stroke-dasharray:none;stroke-opacity:1"
       id="rect14"
       width="562.909"
       height="182.11761"
       x="358.5455"
       y="268.94119"
       sodipodi:type="rect"
       ry="26.718525"
       rx="18.564375"
       inkscape:label="Middle" />
    <rect
       style="fill:#104280;fill-opacity:1;stroke:none;stroke-width:15.5021;stroke-linejoin:bevel;stroke-dasharray:none;stroke-opacity:1"
       id="rect15"
       width="562.909"
       height="182.11761"
       x="358.54553"
       y="471.88235"
       sodipodi:type="rect"
       ry="26.718523"
       rx="18.564375"
       inkscape:label="Bottom" />
  </g>
  <g
     inkscape:groupmode="layer"
     id="layer4"
     inkscape:label="Orange Circles and Lines">
    <path
       style="fill:#d6500d;fill-opacity:1;stroke:none;stroke-width:8.46926;stroke-linejoin:bevel;stroke-dasharray:none;stroke-opacity:1"
       d="m 855.00003,335 a 25,25 0 0 0 -25,25 25,25 0 0 0 25,25 25,25 0 0 0 25,-25 25,25 0 0 0 -25,-25 z"
       id="path17"
       inkscape:label="C (1, 2)" />
    <path
       style="fill:#d6500d;fill-opacity:1;stroke-linejoin:bevel"
       d="m 850.60355,355.3418 -215,202.9414 8.79296,9.31446 215,-202.93946 z"
       id="path50"
       inkscape:label="L (1, 2) -&gt; (2, 1)" />
  </g>
  <g
     inkscape:groupmode="layer"
     id="layer2"
     inkscape:label="White Circles And Lines">
    <circle
       style="fill:#ffffff;fill-opacity:1;stroke:none;stroke-width:8.46926;stroke-linejoin:bevel;stroke-dasharray:none;stroke-opacity:1"
       id="circle15"
       cx="855"
       cy="157.05882"
       r="25"
       inkscape:label="C (0, 2)" />
    <path
       style="fill:#ffffff;stroke-linejoin:bevel;fill-opacity:1"
       d="m 425.00003,150.6543 v 12.80859 h 215 V 150.6543 Z"
       id="path38"
       inkscape:label="L (0, 0) -&gt; (0, 1)" />
    <path
       style="fill:#ffffff;stroke-width:0.707107;stroke-linejoin:bevel;fill-opacity:1"
       d="m 425.00003,353.5957 v 12.8086 h 215 v -12.8086 z"
       id="path44"
       inkscape:label="L (1, 0) -&gt; (1, 1)" />
    <path
       style="fill:#ffffff;stroke-linejoin:bevel;fill-opacity:1"
       d="m 850.60355,152.40234 -215,202.93946 8.79296,9.3164 215,-202.9414 z"
       id="path41"
       inkscape:label="L (0, 2) -&gt; (1, 1)" />
    <path
       style="fill:#ffffff;stroke-linejoin:bevel;fill-opacity:1"
       d="m 425.00003,556.53711 v 12.80859 h 215 v -12.80859 z"
       id="path47"
       inkscape:label="L (2, 0) -&gt; (2, 1)" />
    <path
       style="fill:#ffffff;fill-opacity:1;stroke:none;stroke-width:8.46926;stroke-linejoin:bevel;stroke-dasharray:none;stroke-opacity:1"
       d="m 425.00003,335 a 25,25 0 0 0 -25,25 25,25 0 0 0 25,25 25,25 0 0 0 25,-25 25,25 0 0 0 -25,-25 z"
       id="path15-2-9"
       inkscape:label="C (1, 0)" />
    <path
       style="fill:#ffffff;fill-opacity:1;stroke:none;stroke-width:8.46926;stroke-linejoin:bevel;stroke-dasharray:none;stroke-opacity:1"
       d="m 640.00003,335 a 25,25 0 0 0 -25,25 25,25 0 0 0 25,25 25,25 0 0 0 25,-25 25,25 0 0 0 -25,-25 z"
       id="path16"
       inkscape:label="C (1, 1)" />
    <circle
       style="fill:#ffffff;fill-opacity:1;stroke:none;stroke-width:8.46926;stroke-linejoin:bevel;stroke-dasharray:none;stroke-opacity:1"
       id="circle16"
       cx="425.00003"
       cy="157.05882"
       r="25"
       inkscape:label="C (0, 0)" />
    <circle
       style="fill:#ffffff;fill-opacity:1;stroke:none;stroke-width:8.46926;stroke-linejoin:bevel;stroke-dasharray:none;stroke-opacity:1"
       id="path15"
       cx="640"
       cy="157.05882"
       r="25"
       inkscape:label="C (0, 1)" />
    <path
       style="fill:#ffffff;fill-opacity:1;stroke:none;stroke-width:8.46926;stroke-linejoin:bevel;stroke-dasharray:none;stroke-opacity:1"
       d="m 640.00003,537.94118 a 25,25 0 0 0 -25,25 25,25 0 0 0 25,25 25,25 0 0 0 25,-25 25,25 0 0 0 -25,-25 z"
       id="path18"
       inkscape:label="C (2, 1)" />
    <path
       style="fill:#ffffff;fill-opacity:1;stroke:none;stroke-width:8.46926;stroke-linejoin:bevel;stroke-dasharray:none;stroke-opacity:1"
       d="m 425.00003,537.94118 a 25,25 0 0 0 -25,25 25,25 0 0 0 25,25 25,25 0 0 0 25,-25 25,25 0 0 0 -25,-25 z"
       id="path15-2-6"
       inkscape:label="C (2, 0)" />
  </g>
</svg>
